<?xml version="1.0" encoding="UTF-8"?>
<svg width="476px" height="428px" viewBox="0 0 476 428" version="1.1" xmlns="http://www.w3.org/2000/svg" xmlns:xlink="http://www.w3.org/1999/xlink">
    <!-- Generator: Sketch 56.3 (81716) - https://sketch.com -->
    <title>speech-bubble copy 2</title>
    <desc>Created with Sketch.</desc>
    <g id="Welcome" stroke="none" stroke-width="1" fill="none" fill-rule="evenodd">
        <g id="Profile" transform="translate(-307.000000, -1791.000000)" fill-rule="nonzero">
            <g id="speech-bubble-copy-2" transform="translate(307.000000, 1791.000000)">
                <g id="speech-bubble-copy">
                    <path d="M238.5,93 C233.256446,93 229,97.2564455 229,102.5 C229,107.743554 233.256446,112 238.5,112 C243.743554,112 248,107.743554 248,102.5 C248,97.2564455 243.743554,93 238.5,93 Z" id="Path-Copy" fill="#3454F6"></path>
                    <path d="M84.5,261 C89.7435545,261 94,256.743554 94,251.5 C94,246.256446 89.7435545,242 84.5,242 C79.2564455,242 75,246.256446 75,251.5 C75,256.743554 79.2564455,261 84.5,261 Z" id="Path-Copy-2" fill="#77EA9F"></path>
                    <path d="M312.375,0 C228.677704,0 159.982513,57.7523773 154.669495,130.497113 C74.959686,134.49871 0,192.022113 0,269.826087 C0,302.340421 12.855835,333.844362 36.2578125,358.806182 C40.8880923,377.909171 35.2663882,398.157031 21.3174443,412.117188 C18.6591182,414.777649 17.8638003,418.779246 19.3019106,422.257473 C20.740021,425.732065 24.1282959,428 27.890625,428 C54.4048765,428 79.9567564,417.594395 98.9427183,399.258288 C117.438415,405.567799 141.570343,409.391304 163.625,409.391304 C247.311401,409.391304 315.999329,351.653464 321.326874,278.923268 C340.792206,278.058254 361.03833,274.460089 377.057282,268.997418 C396.043244,287.333526 421.595124,297.73913 448.109375,297.73913 C451.871704,297.73913 455.259979,295.471196 456.698089,291.996603 C458.1362,288.518377 457.340882,284.516779 454.682556,281.856318 C440.733612,267.896161 435.111908,247.648301 439.742187,228.545312 C463.144165,203.583492 476,172.079551 476,139.565217 C476,58.7227919 395.266083,0 312.375,0 Z M163.625,390.782609 C141.682923,390.782609 116.679413,386.472079 99.9305112,379.802752 C96.3424985,378.370754 92.2424316,379.312092 89.6313169,382.165183 C78.4060674,394.446196 63.8106997,403.009103 47.907959,406.945279 C56.6709898,390.142935 58.9080503,370.334851 53.5768735,351.566236 C53.1556089,350.086991 52.3748174,348.734953 51.3034975,347.633696 C30.2112124,325.892051 18.59375,298.258866 18.59375,269.826087 C18.59375,204.259511 85.0083008,148.869565 163.625,148.869565 C237.861999,148.869565 303.078125,200.534137 303.078125,269.826087 C303.078125,336.522996 240.520325,390.782609 163.625,390.782609 Z M424.696502,217.372826 C423.625183,218.477717 422.844391,219.829755 422.423126,221.305366 C417.09195,240.073981 419.32901,259.882065 428.092041,276.684409 C412.1893,272.751868 397.593933,264.185326 386.368683,251.904314 C383.757568,249.054857 379.657501,248.109884 376.069489,249.541882 C361.554017,255.320754 340.84668,259.322351 321.297821,260.28913 C318.58139,225.103431 301.044434,192.033016 271.062012,167.478261 L392.328125,167.478261 C397.463196,167.478261 401.625,163.313112 401.625,158.173913 C401.625,153.034714 397.463196,148.869565 392.328125,148.869565 L242.499542,148.869565 C221.396362,138.118682 197.700226,131.849151 173.310456,130.533458 C178.652526,68.0416778 238.984162,18.6086957 312.375,18.6086957 C390.991699,18.6086957 457.40625,73.9986413 457.40625,139.565217 C457.40625,167.997996 445.788788,195.631182 424.696502,217.372826 Z" id="Shape-Copy" fill="#3454F6"></path>
                    <path d="M238.616438,242 L120.383562,242 C115.20061,242 111,246.252734 111,251.5 C111,256.747266 115.20061,261 120.383562,261 L238.616438,261 C243.79939,261 248,256.747266 248,251.5 C248,246.252734 243.79939,242 238.616438,242 Z" id="Path-Copy-6" fill="#3454F6"></path>
                    <path d="M239.645161,298 L84.3548387,298 C79.1877515,298 75,302.252734 75,307.5 C75,312.747266 79.1877515,317 84.3548387,317 L239.645161,317 C244.812248,317 249,312.747266 249,307.5 C249,302.252734 244.812248,298 239.645161,298 Z" id="Path-Copy-7" fill="#77EA9F"></path>
                    <path d="M391.616438,93 L273.383562,93 C268.20061,93 264,97.2527339 264,102.5 C264,107.747266 268.20061,112 273.383562,112 L391.616438,112 C396.79939,112 401,107.747266 401,102.5 C401,97.2527339 396.79939,93 391.616438,93 Z" id="Path-Copy-8" fill="#77EA9F"></path>
                </g>
            </g>
        </g>
    </g>
</svg>