<svg xmlns="http://www.w3.org/2000/svg" width="1440" height="403" viewBox="0 0 1440 403">
    <g fill="none" fill-rule="evenodd">
        <path fill="#FFF" d="M-63 0h1567v403H-63z"/>
        <g transform="translate(14 -29)">
            <g transform="rotate(-167 694.584 134.46)">
                <circle cx="58.5" cy="30.5" r="30.5" fill="#4AD6DD"/>
                <circle cx="306" cy="166" r="8" fill="#77EA9F"/>
                <path fill="#77EA9F" d="M3.52 236.94l98.825-59.908c3.363-1.932 7.428-1.19 9.605 2.56 2.177 3.751.8 7.618-2.574 9.556l-98.825 59.909c-3.363 1.931-7.65.808-9.605-2.561a6.968 6.968 0 0 1 2.573-9.556z"/>
                <path fill="#4AD6DD" d="M293.024 274.084l17.14-47.041a4.782 4.782 0 0 1 6.148-2.85 4.774 4.774 0 0 1 2.876 6.13l-17.141 47.042a4.782 4.782 0 0 1-6.148 2.85 4.774 4.774 0 0 1-2.875-6.13z"/>
                <path fill="#3454F6" d="M295.19 52.466L229.44 18.94a7.016 7.016 0 0 0-9.466 3.066 7.026 7.026 0 0 0 3.085 9.466l65.75 33.525a7.016 7.016 0 0 0 9.466-3.067 7.026 7.026 0 0 0-3.085-9.465zM53.946 316.615l-31.943-16.287a3.408 3.408 0 0 0-4.599 1.49 3.413 3.413 0 0 0 1.499 4.598l31.943 16.288a3.408 3.408 0 0 0 4.599-1.49 3.413 3.413 0 0 0-1.499-4.599z"/>
            </g>
            <circle cx="110.404" cy="69.78" r="30.5" fill="#4AD6DD" transform="rotate(10 110.404 69.78)"/>
            <circle cx="330.614" cy="246.199" r="8" fill="#77EA9F" transform="rotate(10 330.614 246.2)"/>
            <path fill="#77EA9F" d="M20.41 263.536L128.137 221.7c3.648-1.318 7.523.118 9.015 4.19 1.492 4.071-.535 7.64-4.194 8.963L25.231 276.69c-3.647 1.318-7.674-.532-9.015-4.19a6.968 6.968 0 0 1 4.194-8.964z"/>
            <path fill="#4AD6DD" d="M299.066 350.388l25.05-43.35a4.782 4.782 0 0 1 6.549-1.739 4.774 4.774 0 0 1 1.767 6.536l-25.05 43.35a4.782 4.782 0 0 1-6.548 1.74 4.774 4.774 0 0 1-1.768-6.537z"/>
            <path fill="#3454F6" d="M339.684 132.513l-58.93-44.433a7.016 7.016 0 0 0-9.855 1.376 7.026 7.026 0 0 0 1.395 9.857l58.93 44.433a7.016 7.016 0 0 0 9.854-1.376 7.026 7.026 0 0 0-1.394-9.857zM56.235 350.758l-28.63-21.587a3.408 3.408 0 0 0-4.787.669 3.413 3.413 0 0 0 .678 4.789l28.63 21.586a3.408 3.408 0 0 0 4.787-.668 3.413 3.413 0 0 0-.678-4.79z"/>
        </g>
    </g>
</svg>
