<svg xmlns="http://www.w3.org/2000/svg" width="1440" height="1124" viewBox="0 0 1440 1124">
    <g fill="none" fill-rule="evenodd">
        <rect width="1440" height="1124" fill="#F9F9F9" rx="2"/>
        <g transform="translate(127 81)">
            <circle cx="151" cy="79" r="79" fill="#4AD6DD"/>
            <circle cx="1100.5" cy="455.5" r="20.5" fill="#77EA9F"/>
            <path fill="#77EA9F" d="M9.094 613.115l255.372-155.438c8.69-5.012 19.196-3.089 24.82 6.643 5.626 9.732 2.068 19.766-6.65 24.794L27.264 644.552c-8.69 5.012-19.768 2.098-24.82-6.644-5.018-8.68-2.068-19.766 6.65-24.793z"/>
            <path fill="#4AD6DD" d="M1066.743 733.813l44.273-121.512c2.333-6.405 9.397-9.716 15.877-7.36 6.435 2.34 9.776 9.387 7.427 15.834l-44.272 121.511c-2.334 6.405-9.398 9.717-15.878 7.36-6.435-2.34-9.776-9.386-7.427-15.833z"/>
            <path fill="#3454F6" d="M1072.34 161.354L902.522 74.757c-8.952-4.565-19.866-1.081-24.448 7.92-4.551 8.939-1.043 19.856 7.967 24.45l169.819 86.598c8.95 4.565 19.865 1.08 24.447-7.92 4.551-8.94 1.043-19.856-7.967-24.45zM139.33 817.844l-82.502-42.072a8.803 8.803 0 0 0-11.877 3.848 8.818 8.818 0 0 0 3.87 11.879l82.503 42.071a8.803 8.803 0 0 0 11.877-3.848 8.818 8.818 0 0 0-3.87-11.878z"/>
        </g>
    </g>
</svg>
