<?xml version="1.0" encoding="UTF-8"?>
<svg width="18px" height="12px" viewBox="0 0 18 12" version="1.1" xmlns="http://www.w3.org/2000/svg" xmlns:xlink="http://www.w3.org/1999/xlink">
    <!-- Generator: Sketch 56.3 (81716) - https://sketch.com -->
    <title>message</title>
    <desc>Created with Sketch.</desc>
    <g id="Symbols" stroke="none" stroke-width="1" fill="none" fill-rule="evenodd">
        <g id="FOOTER" transform="translate(-188.000000, -336.000000)" fill="#93B0B5" fill-rule="nonzero">
            <g id="message">
                <g transform="translate(188.000000, 336.000000)">
                    <path d="M17.2584124,0 L0.741587575,0 C0.332015746,0 0,0.344114688 0,0.76861167 L0,11.2313883 C0,11.6558853 0.332015746,12 0.741587575,12 L17.2584124,12 C17.6679843,12 18,11.6558853 18,11.2313883 L18,0.76861167 C18,0.344114688 17.6679843,0 17.2584124,0 Z M0.741587575,0.60362173 L17.2584124,0.60362173 C17.3281061,0.603973843 17.3894521,0.651257545 17.4098361,0.720321932 L9,6.16498994 L0.590163934,0.720321932 C0.610547886,0.651257545 0.671893874,0.603973843 0.741587575,0.60362173 Z M0.582398619,1.4084507 L6.63157895,5.32394366 L0.582398619,10.2977867 L0.582398619,1.4084507 Z M17.4176014,11.2273642 C17.4176014,11.3185111 17.3463061,11.3923541 17.2584124,11.3923541 L0.741587575,11.3923541 C0.653693917,11.3923541 0.582398619,11.3184608 0.582398619,11.2273642 L0.582398619,11.0663984 L7.1557377,5.68209256 L8.8446937,6.77665996 C8.93957614,6.83868209 9.06042386,6.83868209 9.1553063,6.77665996 L10.8442623,5.68209256 L17.4176014,11.0663984 L17.4176014,11.2273642 Z M17.4176014,10.2977867 L11.3528904,5.34004024 L17.4176014,1.44466801 L17.4176014,10.2977867 Z" id="Shape"></path>
                </g>
            </g>
        </g>
    </g>
</svg>