<?xml version="1.0" encoding="UTF-8"?>
<svg width="8px" height="10px" viewBox="0 0 8 10" version="1.1" xmlns="http://www.w3.org/2000/svg" xmlns:xlink="http://www.w3.org/1999/xlink">
    <!-- Generator: Sketch 56.3 (81716) - https://sketch.com -->
    <title>placeholder</title>
    <desc>Created with Sketch.</desc>
    <g id="Welcome" stroke="none" stroke-width="1" fill="none" fill-rule="evenodd">
        <g id="Layout---Search-Copy-2" transform="translate(-116.000000, -833.000000)" fill="#93B0B5" fill-rule="nonzero">
            <g id="Group-2" transform="translate(57.000000, 564.000000)">
                <g id="placeholder" transform="translate(59.000000, 269.000000)">
                    <path d="M4,0 C1.7944,0 0,1.57710938 0,3.515625 C0,4.17058594 0.206422222,4.80976562 0.597088889,5.36429687 L3.77231111,9.86150391 C3.83313333,9.94765625 3.94028889,10 4.05553333,10 C4.05642222,10 4.05728889,10 4.05817778,10 C4.17442222,9.99919922 4.2818,9.94523438 4.34151111,9.85757812 L7.4358,5.31679688 C7.80491111,4.77398437 8,4.15115234 8,3.515625 C8,1.57710938 6.2056,0 4,0 Z M6.97641558,4.91490105 L4.05361039,9.04761905 L1.05436075,4.95455299 C0.716513709,4.49249444 0.533333333,3.95942215 0.533333333,3.41293702 C0.533333333,1.7957712 2.09154401,0.476190476 4.0011544,0.476190476 C5.91076479,0.476190476 7.46666667,1.7957712 7.46666667,3.41293702 C7.46666667,3.94321334 7.29556133,4.46265772 6.97641558,4.91490105 Z" id="Shape"></path>
                    <path d="M4,2 C2.8972,2 2,2.8972 2,4 C2,5.09575556 2.8826,6 4,6 C5.13117778,6 6,5.08371111 6,4 C6,2.8972 5.1028,2 4,2 Z M4.00118751,5.42857143 C3.21132882,5.42857143 2.57142857,4.78706692 2.57142857,4 C2.57142857,3.21490271 3.2154376,2.57142857 4.00118751,2.57142857 C4.78693742,2.57142857 5.42857143,3.21490271 5.42857143,4 C5.42857143,4.7755814 4.80356252,5.42857143 4.00118751,5.42857143 Z" id="Shape"></path>
                </g>
            </g>
        </g>
    </g>
</svg>