<svg xmlns="http://www.w3.org/2000/svg" width="136" height="136" viewBox="0 0 136 136">
    <g fill="#FFF" fill-rule="nonzero">
        <path d="M54.19 69.629h4.723v28.229c0 .62.528 1.142 1.156 1.142h12.354c.628 0 1.156-.522 1.156-1.142v-28.23h7.168c.595 0 1.09-.456 1.157-1.01l1.09-10.379A1.137 1.137 0 0 0 81.97 57h-8.391v-4.96c0-.327.033-.653.166-.947a1.09 1.09 0 0 1 .693-.62c.198-.065.397-.098.595-.098h6.64c.627 0 1.156-.522 1.156-1.142V39.181c0-.62-.529-1.143-1.157-1.143l-9.15-.032c-2.312-.065-4.624.424-6.738 1.37a10.999 10.999 0 0 0-3.403 2.448c-1.288 1.37-2.213 3.035-2.774 4.83a15.799 15.799 0 0 0-.727 4.797v5.58h-4.724c-.627 0-1.156.523-1.156 1.143v10.378c.033.555.529 1.077 1.19 1.077z"/>
        <path d="M67.918 136c37.563.033 68.017-30.356 68.082-67.918C136.065 30.519 105.611.065 68.082 0 30.552-.065.032 30.389 0 67.919a67.923 67.923 0 0 0 19.922 48.159C32.64 128.859 49.92 136 67.918 136zm0-129.022c33.78-.033 61.202 27.356 61.235 61.136.032 33.78-27.357 61.202-61.137 61.234-33.78 0-61.201-27.356-61.234-61.136a61.252 61.252 0 0 1 17.933-43.333A60.862 60.862 0 0 1 67.918 6.978z"/>
    </g>
</svg>
