<?xml version="1.0" encoding="UTF-8"?>
<svg width="27px" height="27px" viewBox="0 0 27 27" version="1.1" xmlns="http://www.w3.org/2000/svg" xmlns:xlink="http://www.w3.org/1999/xlink">
    <!-- Generator: Sketch 56.3 (81716) - https://sketch.com -->
    <title>iconfinder_icon-92-inbox-download_314935</title>
    <desc>Created with Sketch.</desc>
    <g id="Welcome" stroke="none" stroke-width="1" fill="none" fill-rule="evenodd">
        <g id="Mobile---Profile" transform="translate(-43.000000, -547.000000)" fill="#FFFFFF" fill-rule="nonzero">
            <g id="Group" transform="translate(20.000000, 535.000000)">
                <g id="iconfinder_icon-92-inbox-download_314935" transform="translate(23.000000, 12.000000)">
                    <path d="M12.96,13.5 L9.45,9.51136364 L8.64,10.4318182 L13.5,15.9545455 L18.36,10.4318182 L17.55,9.51136364 L14.04,13.5 L14.04,0 L12.96,0 L12.96,13.5 L12.96,13.5 Z M15.12,7.36363636 L20.9520264,7.36363636 L25.6770264,15.9545455 L18.36,15.9545455 L18.36,18.4116521 C18.36,19.7612256 17.3941963,20.8636364 16.202817,20.8636364 L10.797183,20.8636364 C9.60752642,20.8636364 8.64,19.7658456 8.64,18.4116521 L8.64,15.9545455 L1.32297364,15.9545455 L1.32297364,15.9545455 L6.04797364,7.36363636 L11.88,7.36363636 L11.88,6.13636364 L5.4,6.13636364 L0,15.9545455 L0,16.5681818 L0,27 L27,27 L27,16.5681818 L27,15.9545455 L21.6,6.13636364 L15.12,6.13636364 L15.12,7.36363636 L15.12,7.36363636 L15.12,7.36363636 Z M19.44,17.1818182 L25.92,17.1818182 L25.92,25.7727273 L1.08,25.7727273 L1.08,17.1818182 L7.56,17.1818182 L7.56,19.0227273 C7.56,20.7172373 8.76449538,22.0909091 10.2557559,22.0909091 L16.7442441,22.0909091 C18.233069,22.0909091 19.44,20.7290511 19.44,19.0227273 L19.44,17.1818182 L19.44,17.1818182 L19.44,17.1818182 Z" id="inbox-download"></path>
                </g>
            </g>
        </g>
    </g>
</svg>