<?xml version="1.0" encoding="UTF-8"?>
<svg width="12px" height="16px" viewBox="0 0 12 16" version="1.1" xmlns="http://www.w3.org/2000/svg" xmlns:xlink="http://www.w3.org/1999/xlink">
    <!-- Generator: Sketch 56.3 (81716) - https://sketch.com -->
    <title>placeholder</title>
    <desc>Created with Sketch.</desc>
    <g id="Symbols" stroke="none" stroke-width="1" fill="none" fill-rule="evenodd">
        <g id="FOOTER" transform="translate(-191.000000, -186.000000)" fill="#93B0B5" fill-rule="nonzero">
            <g id="placeholder">
                <g transform="translate(191.000000, 186.000000)">
                    <path d="M6,0 C2.6916,0 0,2.523375 0,5.625 C0,6.6729375 0.309633333,7.695625 0.895633333,8.582875 L5.65846667,15.7784062 C5.7497,15.91625 5.91043333,16 6.0833,16 C6.08463333,16 6.08593333,16 6.08726667,16 C6.26163333,15.9987188 6.4227,15.912375 6.51226667,15.772125 L11.1537,8.506875 C11.7073667,7.638375 12,6.64184375 12,5.625 C12,2.523375 9.3084,0 6,0 Z M10.4646234,7.86384167 L6.08041558,14.4761905 L1.58154113,7.92728478 C1.07477056,7.1879911 0.8,6.33507544 0.8,5.46069924 C0.8,2.87323392 3.13731602,0.761904762 6.0017316,0.761904762 C8.86614719,0.761904762 11.2,2.87323392 11.2,5.46069924 C11.2,6.30914135 10.943342,7.14025235 10.4646234,7.86384167 Z" id="Shape"></path>
                    <path d="M6,3 C4.3458,3 3,4.3458 3,6 C3,7.64363333 4.3239,9 6,9 C7.69676667,9 9,7.62556667 9,6 C9,4.3458 7.6542,3 6,3 Z M6.00178126,8.14285714 C4.81699323,8.14285714 3.85714286,7.18060038 3.85714286,6 C3.85714286,4.82235406 4.82315639,3.85714286 6.00178126,3.85714286 C7.18040613,3.85714286 8.14285714,4.82235406 8.14285714,6 C8.14285714,7.16337209 7.20534378,8.14285714 6.00178126,8.14285714 Z" id="Shape"></path>
                </g>
            </g>
        </g>
    </g>
</svg>