<?xml version="1.0" encoding="UTF-8"?>
<svg width="21px" height="21px" viewBox="0 0 21 21" version="1.1" xmlns="http://www.w3.org/2000/svg" xmlns:xlink="http://www.w3.org/1999/xlink">
    <!-- Generator: Sketch 56.3 (81716) - https://sketch.com -->
    <title>Group 3</title>
    <desc>Created with Sketch.</desc>
    <defs>
        <polygon id="path-1" points="0 0 21 0 21 21 0 21"></polygon>
    </defs>
    <g id="Welcome" stroke="none" stroke-width="1" fill="none" fill-rule="evenodd">
        <g id="Profile-Copy-13" transform="translate(-1031.000000, -604.000000)">
            <g id="Group-3" transform="translate(1031.000000, 604.000000)">
                <mask id="mask-2" fill="white">
                    <use xlink:href="#path-1"></use>
                </mask>
                <g id="Clip-2"></g>
                <path d="M18.9113455,11.3058059 L2.75424406,18.3519314 C2.67730549,18.4311013 2.52342833,18.2727614 2.60036691,18.1935915 L5.06240141,12.0183354 C5.13933999,11.7808255 5.21627856,11.5433157 5.29321714,11.3058059 L13.1409521,11.3058059 C13.2186601,11.3058059 13.2948293,11.2266359 13.2948293,11.147466 L13.2948293,9.88074675 C13.2948293,9.80157681 13.2186601,9.72240686 13.1409521,9.72240686 L5.29321714,9.72240686 C5.21627856,9.48489701 5.13933999,9.24738716 5.06240141,9.00987731 L2.60036691,2.83462123 C2.52342833,2.75545128 2.67730549,2.59711138 2.75424406,2.67628133 L18.9113455,9.88074675 C19.2190998,10.0390867 19.3737463,10.2765965 19.3737463,10.5932763 C19.3737463,10.9099561 19.2190998,11.147466 18.9113455,11.3058059 M19.5268541,8.37651771 L0.753841032,0.063672986 C0.292209563,-0.173836863 -0.169421906,0.301182835 0.0613938286,0.697032584 L3.677507,9.56406696 C3.90832274,10.1182566 3.90832274,10.8307862 3.677507,11.3849758 L0.0613938286,20.2520102 C-0.0924833276,20.7270299 0.292209563,21.1228796 0.753841032,20.9645397 L19.6037927,12.8100349 C20.7578713,12.2558452 21.2972108,10.9099561 20.8348099,9.72240686 C20.527825,9.08904726 20.0654241,8.69319751 19.5268541,8.37651771" id="Fill-1" fill="#FFFFFF" mask="url(#mask-2)"></path>
            </g>
        </g>
    </g>
</svg>