<?xml version="1.0" encoding="UTF-8"?>
<svg width="32px" height="24px" viewBox="0 0 32 24" version="1.1" xmlns="http://www.w3.org/2000/svg" xmlns:xlink="http://www.w3.org/1999/xlink">
    <!-- Generator: Sketch 56.3 (81716) - https://sketch.com -->
    <title>speech-bubble</title>
    <desc>Created with Sketch.</desc>
    <g id="Welcome" stroke="none" stroke-width="1" fill="none" fill-rule="evenodd">
        <g id="CHAT" transform="translate(-130.000000, -1828.000000)" fill="#F9F9F9" fill-rule="nonzero">
            <g id="speech-bubble" transform="translate(130.000000, 1828.000000)">
                <path d="M16,5 C15.4480469,5 15,5.22402345 15,5.5 C15,5.77597655 15.4480469,6 16,6 C16.5519531,6 17,5.77597655 17,5.5 C17,5.22402345 16.5519531,5 16,5 Z" id="Path"></path>
                <path d="M5,15 C5.5519531,15 6,14.7759765 6,14.5 C6,14.2240235 5.5519531,14 5,14 C4.4480469,14 4,14.2240235 4,14.5 C4,14.7759765 4.4480469,15 5,15 Z" id="Path"></path>
                <path d="M21,0 C15.373291,0 10.7551269,3.23845106 10.3979492,7.3175951 C5.03930662,7.54198372 0,10.7675951 0,15.1304348 C0,16.9536685 0.864257812,18.7202446 2.4375,20.1199728 C2.74877931,21.1911685 2.37084962,22.3265625 1.4331055,23.109375 C1.2543945,23.2585598 1.20092775,23.4829484 1.29760744,23.6779891 C1.39428712,23.8728261 1.62207031,24 1.875,24 C3.65747069,24 5.37524412,23.4165081 6.65161131,22.3883152 C7.8950195,22.7421196 9.517334,22.9565217 11,22.9565217 C16.6259766,22.9565217 21.2436524,19.7188858 21.6018066,15.6405571 C22.9104004,15.5920516 24.2714844,15.3902853 25.3483887,15.0839674 C26.6247559,16.1121603 28.3425293,16.6956522 30.125,16.6956522 C30.3779297,16.6956522 30.6057129,16.5684783 30.7023926,16.3736413 C30.7990722,16.1786006 30.7456055,15.9542119 30.5668945,15.8050272 C29.6291504,15.0222147 29.2512207,13.8868206 29.5625,12.815625 C31.1357422,11.4158968 32,9.64932063 32,7.82608696 C32,3.29286683 26.5725097,0 21,0 Z M11,21.9130435 C9.52490237,21.9130435 7.84399413,21.6713315 6.71801756,21.2973506 C6.47680663,21.2170516 6.20117188,21.269837 6.02563475,21.4298234 C5.27099612,22.1184783 4.28979494,22.5986413 3.22070312,22.8193614 C3.80981444,21.8771739 3.96020506,20.7664402 3.60180663,19.7139945 C3.57348631,19.6310462 3.52099612,19.555231 3.44897462,19.4934783 C2.03100587,18.2743206 1.25,16.7247962 1.25,15.1304348 C1.25,11.4538043 5.71484375,8.34782609 11,8.34782609 C15.9907226,8.34782609 20.375,11.2449049 20.375,15.1304348 C20.375,18.8704484 16.1694336,21.9130435 11,21.9130435 Z M28.5510254,12.1891304 C28.4790039,12.251087 28.4265137,12.3269022 28.3981934,12.4096467 C28.0397949,13.4620924 28.1901856,14.5728261 28.7792969,15.5150136 C27.7102051,15.2944973 26.7290039,14.8141304 25.9743652,14.1254755 C25.7988281,13.9656929 25.5231934,13.9127038 25.2819824,13.9930027 C24.3061524,14.3170516 22.9140625,14.5414402 21.5998535,14.5956522 C21.4172363,12.6226223 20.2382812,10.7682065 18.2226562,9.39130435 L26.375,9.39130435 C26.7202149,9.39130435 27,9.15774459 27,8.86956522 C27,8.58138584 26.7202149,8.34782609 26.375,8.34782609 L16.3024902,8.34782609 C14.8837891,7.7449728 13.2907715,7.39341031 11.6511231,7.31963317 C12.0102539,3.81542118 16.0661621,1.04347826 21,1.04347826 C26.2851562,1.04347826 30.75,4.14945652 30.75,7.82608696 C30.75,9.42044838 29.9689941,10.9699728 28.5510254,12.1891304 Z" id="Shape"></path>
                <path d="M16.3835616,14 L8.61643836,14 C8.27595245,14 8,14.2238281 8,14.5 C8,14.7761719 8.27595245,15 8.61643836,15 L16.3835616,15 C16.7240475,15 17,14.7761719 17,14.5 C17,14.2238281 16.7240475,14 16.3835616,14 Z" id="Path"></path>
                <path d="M16.3548387,17 L5.64516129,17 C5.28881045,17 5,17.2238281 5,17.5 C5,17.7761719 5.28881045,18 5.64516129,18 L16.3548387,18 C16.7111895,18 17,17.7761719 17,17.5 C17,17.2238281 16.7111895,17 16.3548387,17 Z" id="Path"></path>
                <path d="M26.3835616,5 L18.6164384,5 C18.2759525,5 18,5.2238281 18,5.5 C18,5.7761719 18.2759525,6 18.6164384,6 L26.3835616,6 C26.7240475,6 27,5.7761719 27,5.5 C27,5.2238281 26.7240475,5 26.3835616,5 Z" id="Path"></path>
            </g>
        </g>
    </g>
</svg>