<svg xmlns="http://www.w3.org/2000/svg" width="136" height="136" viewBox="0 0 136 136">
    <g fill="#FFF" fill-rule="nonzero">
        <path d="M67.918 136c37.563.033 68.017-30.356 68.082-67.918C136.065 30.519 105.611.065 68.082 0 30.552-.065.032 30.389 0 67.919a67.923 67.923 0 0 0 19.922 48.159C32.64 128.859 49.92 136 67.918 136zm0-129.022c33.78-.033 61.202 27.356 61.235 61.136.032 33.78-27.357 61.202-61.137 61.234-33.78 0-61.201-27.356-61.234-61.136a61.252 61.252 0 0 1 17.933-43.333A60.862 60.862 0 0 1 67.918 6.978z"/>
        <path d="M36.52 88.18A36.294 36.294 0 0 0 56.228 94a36.758 36.758 0 0 0 15.67-3.382c6.493-3.056 11.92-8.063 15.572-14.305a38.3 38.3 0 0 0 5.33-19.149v-1.072a26.908 26.908 0 0 0 6.01-6.405c.355-.52.193-1.236-.323-1.593a1.109 1.109 0 0 0-1.099-.098 19.97 19.97 0 0 1-2.65.976 13.042 13.042 0 0 0 2.489-4.552 1.134 1.134 0 0 0-.744-1.43 1.178 1.178 0 0 0-.936.097c-2.165 1.3-4.524 2.21-6.979 2.764-5.395-5.267-13.99-5.105-19.223.325-2.455 2.536-3.812 5.95-3.812 9.525 0 .553.032 1.073.097 1.626a34.063 34.063 0 0 1-23.423-12.582 1.122 1.122 0 0 0-1.584-.162 1.272 1.272 0 0 0-.258.325c-2.81 4.876-2.39 10.988 1.13 15.377-.484-.195-.936-.39-1.388-.65a1.16 1.16 0 0 0-1.551.455.959.959 0 0 0-.13.52v.196c0 4.616 2.327 8.94 6.204 11.476l-.485-.098c-.614-.13-1.195.293-1.325.91-.032.196-.032.39.033.553a13.604 13.604 0 0 0 9.66 9.104c-4.588 2.795-9.951 3.966-15.25 3.316-.613-.065-1.195.357-1.26 1.007a1.26 1.26 0 0 0 .517 1.106z"/>
    </g>
</svg>
