<svg xmlns="http://www.w3.org/2000/svg" width="136" height="136" viewBox="0 0 136 136">
    <g fill="#FFF" fill-rule="evenodd">
        <path fill-rule="nonzero" d="M68 6.8c33.745 0 61.2 27.455 61.2 61.2 0 33.745-27.452 61.2-61.2 61.2-33.748 0-61.2-27.455-61.2-61.2C6.8 34.255 34.255 6.8 68 6.8zM68 0C30.444 0 0 30.444 0 68c0 37.56 30.444 68 68 68 37.55 0 68-30.44 68-68 0-37.556-30.447-68-68-68z"/>
        <path d="M42.856 36h51.292c4.866 0 8.852 3.983 8.852 8.856v51.288c0 4.873-3.986 8.856-8.852 8.856H42.856c-4.87 0-8.856-3.983-8.856-8.856V44.856C34 39.983 37.986 36 42.856 36zm41.412 7.667a3.114 3.114 0 0 0-3.106 3.106v7.437a3.111 3.111 0 0 0 3.106 3.103h7.8a3.11 3.11 0 0 0 3.1-3.103v-7.437a3.113 3.113 0 0 0-3.1-3.106h-7.8zm10.935 21.512h-6.076c.577 1.876.887 3.862.887 5.924 0 11.478-9.605 20.78-21.444 20.78-11.845 0-21.453-9.302-21.453-20.78 0-2.062.313-4.048.886-5.924h-6.336v29.147a2.75 2.75 0 0 0 2.742 2.746H92.46a2.75 2.75 0 0 0 2.74-2.746V65.18h.003zM68.57 56.924c-7.66 0-13.862 6.01-13.862 13.427 0 7.419 6.203 13.433 13.862 13.433 7.65 0 13.853-6.014 13.853-13.433 0-7.416-6.203-13.427-13.853-13.427z"/>
    </g>
</svg>
