<?xml version="1.0" encoding="UTF-8"?>
<svg width="39px" height="39px" viewBox="0 0 39 39" version="1.1" xmlns="http://www.w3.org/2000/svg" xmlns:xlink="http://www.w3.org/1999/xlink">
    <!-- Generator: Sketch 56.3 (81716) - https://sketch.com -->
    <title>iconfinder_Neon_Line_Social_Circles_50Icon_10px_grid-45_658588</title>
    <desc>Created with Sketch.</desc>
    <g id="Welcome" stroke="none" stroke-width="1" fill="none" fill-rule="evenodd">
        <g id="Join" transform="translate(-353.000000, -1522.000000)" fill-rule="nonzero" stroke="#FFFFFF">
            <g id="iconfinder_Neon_Line_Social_Circles_50Icon_10px_grid-45_658588" transform="translate(354.000000, 1523.000000)">
                <path d="M18.500402,0 C8.29931337,0 0,8.29940354 0,18.500201 C0,28.7009984 8.29931337,37 18.5,37 C28.7006866,37 37,28.7009984 37,18.500201 C37.000402,8.29940354 28.7014906,0 18.500402,0 Z M18.500402,36.1964299 C8.74269914,36.1964299 0.804365304,28.2580098 0.804365304,18.500603 C0.803963322,8.74279413 8.74269914,0.803972057 18.500402,0.803972057 C28.2581048,0.803972057 36.1964387,8.74279413 36.1964387,18.500201 C36.1964387,28.2580098 28.2581048,36.1964299 18.500402,36.1964299 Z" id="Shape" fill="#000000"></path>
                <path d="M27.9319112,11.723123 C27.470089,11.3548167 26.7443684,11.236272 25.7231616,11.1647363 C24.2421318,11.061725 21.7286995,11 18.9997501,11 C16.2708007,11 13.7577683,11.0613163 12.2771383,11.1647363 C11.2559315,11.236272 10.5302109,11.3548167 10.0687885,11.723123 C9.75011121,11.9777899 9.36066115,12.4703638 9.17993073,14.0371985 C8.94002309,16.12236 8.94002309,20.8772312 9.17993073,22.9632102 C9.36066115,24.5280011 9.74971136,25.0213926 10.0679888,25.2756506 C10.529811,25.645592 11.2559315,25.7641368 12.2775381,25.8356724 C13.766165,25.938275 16.2791975,26 18.9997501,26 C21.7203027,26 24.2341349,25.9386837 25.7231616,25.8356724 C26.7443684,25.7645456 27.4704889,25.6460008 27.9331108,25.2752419 C28.2513882,25.0189399 28.6404384,24.5243221 28.8191696,22.9632102 C29.0602768,20.8772312 29.0602768,16.1219512 28.8191696,14.0371985 C28.6404384,12.4740428 28.2513882,11.9798338 27.9319112,11.723123 Z M28.0250753,22.8679657 C27.9167171,23.8130535 27.7191931,24.4070037 27.4393009,24.6322387 C27.1210234,24.8873143 26.3657142,24.971522 25.6691824,25.0201662 C24.1969492,25.1219512 21.703909,25.1824499 18.9997501,25.1824499 C16.295991,25.1824499 13.8029509,25.1219512 12.3315174,25.0201662 C11.6345857,24.971522 10.8792765,24.8873143 10.5605992,24.6322387 C10.2803071,24.40823 10.083183,23.8146886 9.97362515,22.8679657 C9.73891552,20.8265431 9.73891552,16.1734569 9.97362515,14.1328519 C10.0827831,13.1849026 10.2803071,12.5909524 10.5601993,12.3677613 C10.8788766,12.1135032 11.6345857,12.0292955 12.3311175,11.9802425 C13.7949539,11.8784576 16.2879941,11.8175501 18.9993503,11.8175501 C21.7111062,11.8175501 24.2045462,11.8784576 25.6679828,11.9802425 C26.3653144,12.0292955 27.1206236,12.1135032 27.4385012,12.3669437 C27.7191931,12.5921788 27.9163172,13.1861289 28.0246755,14.1328519 C28.2613844,16.1734569 28.2613844,20.8265431 28.0250753,22.8679657 Z" id="Shape" fill="#FFFFFF"></path>
                <path d="M22.7715638,18.1370003 L16.6207691,15.0466005 C16.4887177,14.9803075 16.3316147,14.9848088 16.2042339,15.0596954 C16.0772777,15.1337635 16,15.2663495 16,15.4095751 L16,21.5907839 C16,21.7340096 16.0777023,21.8665956 16.2042339,21.9406637 C16.2717457,21.9803576 16.3481742,22 16.4246027,22 C16.4921145,22 16.5592017,21.9844498 16.6207691,21.9537586 L22.7715638,18.8625404 C22.9121072,18.7921552 23,18.6522033 23,18.4995657 C23,18.3469281 22.9116826,18.2073854 22.7715638,18.1370003 Z M16.8487808,20.9159866 L16.8487808,16.0843724 L21.6565571,18.4999749 L16.8487808,20.9159866 Z" id="Shape" fill="#FFFFFF"></path>
            </g>
        </g>
    </g>
</svg>