<?xml version="1.0" encoding="UTF-8"?>
<svg width="32px" height="31px" viewBox="0 0 32 31" version="1.1" xmlns="http://www.w3.org/2000/svg" xmlns:xlink="http://www.w3.org/1999/xlink">
    <!-- Generator: Sketch 56.3 (81716) - https://sketch.com -->
    <title>iconfinder_star_115793</title>
    <desc>Created with Sketch.</desc>
    <g id="Welcome" stroke="none" stroke-width="1" fill="none" fill-rule="evenodd">
        <g id="Profile" transform="translate(-947.000000, -1292.000000)" fill="#77EA9F" fill-rule="nonzero">
            <g id="iconfinder_star_115793" transform="translate(947.000000, 1292.000000)">
                <path d="M31.881,11.557 C31.604,10.758 30.893,10.173 30.037,10.046 L21.711,8.808 L18.092,1.294 C17.711,0.505 16.896,0 16,0 C15.104,0 14.289,0.505 13.908,1.294 L10.289,8.808 L1.962,10.046 C1.107,10.173 0.396,10.758 0.12,11.557 C-0.155,12.358 0.053,13.24 0.657,13.842 L6.759,19.934 L5.344,28.385 C5.2,29.236 5.569,30.09 6.292,30.588 C6.689,30.861 7.156,31 7.623,31 C8.007,31 8.392,30.906 8.741,30.719 L16,26.811 L23.26,30.719 C23.609,30.906 23.994,31 24.377,31 C24.844,31 25.311,30.861 25.709,30.588 C26.432,30.09 26.799,29.236 26.656,28.385 L25.24,19.934 L31.344,13.842 C31.947,13.239 32.154,12.357 31.881,11.557 Z M23.588,18.363 C23.076,18.873 22.844,19.592 22.961,20.297 L24.377,28.748 L17.117,24.842 C16.769,24.654 16.385,24.561 15.999,24.561 C15.615,24.561 15.23,24.655 14.882,24.842 L7.622,28.748 L9.038,20.297 C9.156,19.592 8.924,18.873 8.412,18.363 L2.31,12.271 L10.636,11.031 C11.397,10.918 12.052,10.442 12.379,9.763 L16,2.251 L19.62,9.764 C19.948,10.443 20.602,10.918 21.362,11.032 L29.69,12.272 L23.588,18.363 Z" id="star"></path>
            </g>
        </g>
    </g>
</svg>