<?xml version="1.0" encoding="UTF-8"?>
<svg width="12px" height="8px" viewBox="0 0 12 8" version="1.1" xmlns="http://www.w3.org/2000/svg" xmlns:xlink="http://www.w3.org/1999/xlink">
    <!-- Generator: Sketch 56.3 (81716) - https://sketch.com -->
    <title>Fill 1</title>
    <desc>Created with Sketch.</desc>
    <g id="Welcome" stroke="none" stroke-width="1" fill="none" fill-rule="evenodd">
        <g id="Layout---Job-Board-Copy-2" transform="translate(-94.000000, -148.000000)" fill="#93B0B5">
            <path d="M104.612245,151.2 L96.7755102,151.2 L98.6612245,149.352 C98.8220408,149.1944 98.8979592,149.0064 98.8979592,148.8 C98.8979592,148.4064 98.5661224,148 98.0816327,148 C97.864898,148 97.6759184,148.0772 97.5183673,148.232 L94.2702041,151.4152 C94.1363265,151.5464 94,151.7084 94,152 C94,152.2916 94.1138776,152.432 94.2636735,152.5788 L97.5183673,155.768 C97.6759184,155.9228 97.864898,156 98.0816327,156 C98.5665306,156 98.8979592,155.5936 98.8979592,155.2 C98.8979592,154.9936 98.8220408,154.8056 98.6612245,154.648 L96.7755102,152.8 L104.612245,152.8 C105.062857,152.8 105.428571,152.4416 105.428571,152 C105.428571,151.5584 105.062857,151.2 104.612245,151.2" id="Fill-1"></path>
        </g>
    </g>
</svg>